<svg width="120" height="120" viewBox="0 0 120 120" fill="none" xmlns="http://www.w3.org/2000/svg">
<path fill-rule="evenodd" clip-rule="evenodd" d="M15 25H75C80.5229 25 85 29.4772 85 35V41.9098L115 26.9098V93.0902L85 78.0902V85C85 90.5228 80.5229 95 75 95H15C9.47715 95 5 90.5228 5 85V35C5 29.4772 9.47715 25 15 25ZM85 66.9098L105 76.9098V43.0902L85 53.0902V66.9098ZM15 35V85H75V35H15Z" fill="black"/>
<path fill-rule="evenodd" clip-rule="evenodd" d="M49.0833 57.9167H67.8333V62.0833H49.0833V80.8333H44.9167V62.0833H26.1667V57.9167H44.9167V39.1667H49.0833V57.9167Z" fill="black"/>
</svg>
